<svg xmlns="http://www.w3.org/2000/svg" width="24" height="24" viewBox="0 0 24 24">
    <g fill="none" fill-rule="evenodd">
        <g fill="#FFF">
            <g>
                <g>
                    <g>
                        <g>
                            <path d="M12.003 5c.61 0 1.106.495 1.106 1.105l-.001 4.789h4.786c.57 0 1.04.432 1.1.986L19 12c0 .61-.495 1.105-1.106 1.105h-4.786v4.79c0 .57-.43 1.039-.984 1.099l-.12.006c-.612 0-1.107-.495-1.107-1.105v-4.79H6.106c-.57 0-1.04-.43-1.1-.985L5 12c0-.61.495-1.105 1.106-1.105l4.791-.001V6.105c0-.57.432-1.039.986-1.099z" transform="translate(-230 -918) translate(200 714) translate(6 184) translate(0 12) translate(24 8)"/>
                        </g>
                    </g>
                </g>
            </g>
        </g>
    </g>
</svg>
