<svg xmlns="http://www.w3.org/2000/svg" width="24" height="24" viewBox="0 0 24 24">
    <defs>
        <filter id="7i0d9yaina">
            <feColorMatrix in="SourceGraphic" values="0 0 0 0 0.298039 0 0 0 0 0.298039 0 0 0 0 0.298039 0 0 0 1.000000 0"/>
        </filter>
    </defs>
    <g fill="#fff" fill-rule="evenodd">
        <g>
            <g>
                <g>
                    <g transform="translate(-480 -1474) translate(200 1234) translate(0 184) translate(280 56)">
                        <g>
                            <path fill="#fff" fill-rule="nonzero" d="M7.986 10.914c-.4 0-.726.325-.726.726v2.904c0 .401.325.726.726.726.4 0 .726-.325.726-.726V11.64c0-.4-.325-.726-.726-.726zM7.986.024c-.4 0-.726.325-.726.726v1.452c0 .401.325.726.726.726.4 0 .726-.325.726-.726V.75c0-.4-.325-.726-.726-.726zM4.356 7.284c0-.4-.325-.726-.726-.726H.726c-.4 0-.726.325-.726.726 0 .401.325.726.726.726H3.63c.4 0 .726-.325.726-.726zM15.246 6.558h-2.904c-.4 0-.726.325-.726.726 0 .401.325.726.726.726h2.904c.4 0 .726-.325.726-.726 0-.4-.325-.726-.726-.726zM4.392 9.851L2.34 11.904c-.283.284-.283.744 0 1.027.142.142.328.213.513.213.186 0 .372-.071.514-.213l2.053-2.053c.284-.284.284-.743 0-1.027-.283-.284-.743-.284-1.027 0zM11.066 4.93c.186 0 .372-.07.513-.213l2.054-2.053c.283-.284.283-.743 0-1.027-.284-.283-.743-.283-1.027 0l-2.053 2.054c-.284.283-.284.743 0 1.026.142.142.327.213.513.213zM11.58 9.851c-.284-.283-.744-.284-1.027 0-.284.283-.284.743 0 1.027l2.053 2.053c.142.142.328.213.514.213.185 0 .371-.071.513-.213.283-.283.283-.743 0-1.027l-2.054-2.053z" transform="translate(4 5)"/>
                        </g>
                    </g>
                </g>
            </g>
        </g>
    </g>
</svg>
